<?xml version="1.0" encoding="UTF-8"?>
<svg width="25px" height="25px" viewBox="0 0 25 25" version="1.1" xmlns="http://www.w3.org/2000/svg" xmlns:xlink="http://www.w3.org/1999/xlink">
    <!-- Generator: Sketch 57 (83077) - https://sketch.com -->
    <title>facebook (1)</title>
    <desc>Created with Sketch.</desc>
    <g id="Page-1" stroke="none" stroke-width="1" fill="none" fill-rule="evenodd">
        <g id="facebook-(1)" fill-rule="nonzero">
            <path d="M23.6200333,-4.41806036e-08 L1.37882231,-4.41806036e-08 C0.617218018,0.000381469727 -4.41806036e-08,0.61817168 -4.41806036e-08,1.37996675 L-4.41806036e-08,23.6211777 C0.000381469727,24.382782 0.61817168,25 1.37996675,25 L23.6200333,25 C24.382019,25 25,24.3825913 25,23.6206055 C25,23.6204147 25,23.620224 25,23.6200333 L25,1.37882231 C24.9996186,0.617218018 24.3818283,-4.41806036e-08 23.6200333,-4.41806036e-08 Z" id="Path" fill="#4267B2"></path>
            <path d="M17.2607422,25 L17.2607422,15.3320312 L20.5200195,15.3320312 L21.0083008,11.5478516 L17.2607422,11.5478516 L17.2607422,9.13772583 C17.2607422,8.04462432 17.5642014,7.29980469 19.1316604,7.29980469 L21.1181641,7.29980469 L21.1181641,3.92436982 C20.7725525,3.87840273 19.5867539,3.77559663 18.2069778,3.77559663 C15.3261185,3.77559663 13.3544922,5.53340913 13.3544922,8.76293184 L13.3544922,11.5478516 L10.1074219,11.5478516 L10.1074219,15.3320312 L13.3544922,15.3320312 L13.3544922,25 L17.2607422,25 Z" id="Path" fill="#FFFFFF"></path>
        </g>
    </g>
</svg>