<?xml version="1.0" encoding="UTF-8"?>
<svg width="25px" height="25px" viewBox="0 0 25 25" version="1.1" xmlns="http://www.w3.org/2000/svg" xmlns:xlink="http://www.w3.org/1999/xlink">
    <!-- Generator: Sketch 57 (83077) - https://sketch.com -->
    <title>instagram-sketched</title>
    <desc>Created with Sketch.</desc>
    <defs>
        <linearGradient x1="8.3918274%" y1="91.6080519%" x2="91.6081538%" y2="8.39109063%" id="linearGradient-1">
            <stop stop-color="#FFD600" offset="0%"></stop>
            <stop stop-color="#FF0100" offset="50%"></stop>
            <stop stop-color="#D800B9" offset="100%"></stop>
        </linearGradient>
        <linearGradient x1="14.6448468%" y1="85.3554237%" x2="85.3554617%" y2="14.6448087%" id="linearGradient-2">
            <stop stop-color="#FF6400" offset="0%"></stop>
            <stop stop-color="#FF0100" offset="50%"></stop>
            <stop stop-color="#FD0056" offset="100%"></stop>
        </linearGradient>
        <linearGradient x1="14.6471982%" y1="85.3539573%" x2="85.3546499%" y2="14.6465056%" id="linearGradient-3">
            <stop stop-color="#F30072" offset="0%"></stop>
            <stop stop-color="#E50097" offset="100%"></stop>
        </linearGradient>
    </defs>
    <g id="Page-1" stroke="none" stroke-width="1" fill="none" fill-rule="evenodd">
        <g id="instagram-sketched" fill-rule="nonzero">
            <path d="M24.9248505,7.34634399 C24.8640061,6.01577759 24.6526718,5.1071167 24.3436813,4.31213379 C24.0299225,3.47805024 23.5378266,2.72254941 22.9019165,2.0980835 C22.2776413,1.46217344 21.5219498,0.969886768 20.6878662,0.655937207 C19.8926926,0.347137451 18.9842224,0.135993945 17.653656,0.0755310059 C16.3206101,0.0144958496 15.8946991,0 12.5,0 C9.10530088,0 8.67938994,0.0144958496 7.34634399,0.0751495117 C6.01577759,0.135993945 5.10730742,0.347328174 4.31213379,0.656318652 C3.47805024,0.970077539 2.72254941,1.46217344 2.0980835,2.0980835 C1.46217344,2.72235869 0.969886768,3.47785947 0.655937207,4.31194307 C0.347137451,5.1071167 0.135993945,6.01577759 0.0755310059,7.34615327 C0.0144958496,8.67938994 0,9.10511016 0,12.4998093 C0,15.8946991 0.0144958496,16.3206101 0.0755310059,17.653656 C0.136184668,18.9840317 0.347518945,19.8926926 0.656509375,20.6878662 C0.970268262,21.521759 1.46236421,22.2774506 2.09827422,22.9017258 C2.72254941,23.5376358 3.47824097,24.0297317 4.31232451,24.3434906 C5.10730742,24.6526718 6.01596831,24.8638153 7.34653472,24.9246597 C8.67977144,24.9855042 9.10549165,24.9998093 12.5001907,24.9998093 C15.8948898,24.9998093 16.3208008,24.9855042 17.6538467,24.9246597 C18.9844131,24.8638153 19.8928833,24.6526718 20.6880569,24.3434906 C22.3670959,23.6942291 23.6944199,22.3669052 24.3436813,20.6878662 C24.6528625,19.8926926 24.8640061,18.9840317 24.9248505,17.653656 C24.9855042,16.3204193 25,15.8946991 25,12.5 C25,9.10511016 24.9855042,8.67938994 24.9248505,7.34634399 Z M22.6747513,17.5512314 C22.6192475,18.7700271 22.4155426,19.4318771 22.2444534,19.8722839 C21.8238831,20.9625244 20.9623337,21.8240738 19.8720932,22.2446441 C19.4316864,22.4157333 18.7698364,22.6194382 17.5510406,22.674942 C16.2332535,22.7352143 15.8378601,22.7478027 12.5,22.7478027 C9.16194917,22.7478027 8.76674653,22.7352143 7.4487686,22.674942 C6.23016357,22.6194382 5.56831357,22.4157333 5.12771606,22.2446441 C4.58488467,22.0441818 4.09374238,21.7247009 3.69052886,21.3094711 C3.27529907,20.9062576 2.95581816,20.4153061 2.75535586,19.8722839 C2.58426665,19.4318771 2.38056182,18.7700271 2.32505801,17.5512314 C2.26497651,16.2332535 2.25219727,15.8378601 2.25219727,12.5001907 C2.25219727,9.16233062 2.26497651,8.76712798 2.32505801,7.44895937 C2.38075254,6.23016357 2.58426665,5.56831357 2.75535586,5.12790679 C2.95581816,4.58488467 3.27548979,4.09374238 3.69052886,3.69052886 C4.09374238,3.27529907 4.58488467,2.95581816 5.12790679,2.75554658 C5.56831357,2.58426665 6.23016357,2.38075254 7.44895938,2.32505801 C8.76693726,2.26497651 9.16233062,2.25219727 12.5,2.25219727 L12.4998093,2.25219727 C15.8374786,2.25219727 16.232872,2.26497651 17.5510406,2.32524873 C18.7698364,2.38075254 19.4314957,2.58445742 19.8720932,2.75554658 C20.4149246,2.95600889 20.9060669,3.27548979 21.3092804,3.69052886 C21.7245102,4.09374238 22.0439911,4.58488467 22.2442627,5.12790679 C22.4155426,5.56831357 22.6192475,6.23016357 22.6747513,7.44895937 C22.7348328,8.76693726 22.747612,9.16233062 22.747612,12.5 C22.747612,15.8378601 22.7350235,16.2330627 22.6747513,17.5512314 Z" id="Shape" fill="url(#linearGradient-1)"></path>
            <path d="M12.4998093,6.08100889 C8.95481108,6.08100889 6.08100889,8.95500186 6.08100889,12.5 C6.08100889,16.0449981 8.95481108,18.9188003 12.4998093,18.9188003 C16.0449981,18.9188003 18.9188003,16.0449981 18.9188003,12.5 C18.9188003,8.95500186 16.0449981,6.08100889 12.4998093,6.08100889 Z M12.4998093,16.6666031 C10.1987839,16.6664124 8.33320615,14.8010254 8.33339692,12.4998093 C8.33339692,10.1987839 10.1987839,8.33320615 12.5,8.33320615 C14.8012161,8.33339692 16.6666031,10.1987839 16.6666031,12.4998093 C16.6666031,14.8010254 14.8010254,16.6666031 12.4998093,16.6666031 Z" id="Shape" fill="url(#linearGradient-2)"></path>
            <path d="M20.6724167,5.82752227 C20.6724167,6.65588379 20.0008393,7.32746123 19.1724777,7.32746123 C18.3439255,7.32746123 17.672348,6.65588379 17.672348,5.82752227 C17.672348,4.99897002 18.3439255,4.32739258 19.1724777,4.32739258 C20.0008393,4.32739258 20.6724167,4.99897002 20.6724167,5.82752227 L20.6724167,5.82752227 Z" id="Path" fill="url(#linearGradient-3)"></path>
        </g>
    </g>
</svg>