<?xml version="1.0" encoding="UTF-8"?>
<svg width="25px" height="25px" viewBox="0 0 25 25" version="1.1" xmlns="http://www.w3.org/2000/svg" xmlns:xlink="http://www.w3.org/1999/xlink">
    <!-- Generator: Sketch 57 (83077) - https://sketch.com -->
    <title>linkedin</title>
    <desc>Created with Sketch.</desc>
    <g id="Page-1" stroke="none" stroke-width="1" fill="none" fill-rule="evenodd">
        <g id="linkedin" fill="#0077B5" fill-rule="nonzero">
            <path d="M24.99375,25 L24.99375,24.9989583 L25,24.9989583 L25,15.8302083 C25,11.3447917 24.034375,7.88958333 18.790625,7.88958333 C16.2697917,7.88958333 14.578125,9.27291667 13.8875,10.584375 L13.8145833,10.584375 L13.8145833,8.30833333 L8.84270833,8.30833333 L8.84270833,24.9989583 L14.0197917,24.9989583 L14.0197917,16.734375 C14.0197917,14.5583333 14.4322917,12.4541667 17.1270833,12.4541667 C19.7822917,12.4541667 19.821875,14.9375 19.821875,16.8739583 L19.821875,25 L24.99375,25 Z" id="Path"></path>
            <polygon id="Path" points="0.4125 8.309375 5.59583333 8.309375 5.59583333 25 0.4125 25"></polygon>
            <path d="M3.00208333,0 C1.34479167,0 0,1.34479167 0,3.00208333 C0,4.659375 1.34479167,6.03229167 3.00208333,6.03229167 C4.659375,6.03229167 6.00416667,4.659375 6.00416667,3.00208333 C6.003125,1.34479167 4.65833333,0 3.00208333,0 Z" id="Path"></path>
        </g>
    </g>
</svg>