<?xml version="1.0" encoding="UTF-8"?>
<svg width="25px" height="18px" viewBox="0 0 25 18" version="1.1" xmlns="http://www.w3.org/2000/svg" xmlns:xlink="http://www.w3.org/1999/xlink">
    <!-- Generator: Sketch 57 (83077) - https://sketch.com -->
    <title>youtube</title>
    <desc>Created with Sketch.</desc>
    <g id="Page-1" stroke="none" stroke-width="1" fill="none" fill-rule="evenodd">
        <g id="youtube" fill-rule="nonzero">
            <g id="Group">
                <path d="M24.4372868,2.73361355 C24.1496482,1.66472495 23.3069109,0.82217807 22.2382127,0.534349123 C20.2856588,-8.8817842e-15 12.4754432,-8.8817842e-15 12.4754432,-8.8817842e-15 C12.4754432,-8.8817842e-15 4.66541788,-8.8817842e-15 2.71286399,0.513980263 C1.66472495,0.80161886 0.80142846,1.6649153 0.513789912,2.73361355 C-3.19744231e-14,4.6859771 -3.19744231e-14,8.73499942 -3.19744231e-14,8.73499942 C-3.19744231e-14,8.73499942 -3.19744231e-14,12.8043905 0.513789912,14.7363852 C0.80161886,15.8050834 1.64416574,16.6478207 2.71305434,16.9356497 C4.6859771,17.4699988 12.4756335,17.4699988 12.4756335,17.4699988 C12.4756335,17.4699988 20.2856588,17.4699988 22.2382127,16.9560185 C23.3071013,16.6683799 24.1496482,15.8256427 24.4374771,14.7569444 C24.951372,12.8043905 24.951372,8.75555858 24.951372,8.75555858 C24.951372,8.75555858 24.9718263,4.6859771 24.4372868,2.73361355 Z" id="Path" fill="#FF0000"></path>
                <polygon id="Path" fill="#FFFFFF" points="9.98873051 12.4756335 16.483347 8.73499942 9.98873051 4.99436525"></polygon>
            </g>
        </g>
    </g>
</svg>